<svg width="168" height="102" viewBox="0 0 168 102" fill="none" xmlns="http://www.w3.org/2000/svg">
<path d="M38.7564 15.226C38.1544 15.226 37.6224 14.946 37.6224 14.008V13.35H30.6084C29.5304 13.35 29.3344 12.874 29.3344 12.426C29.3344 11.866 29.5444 11.474 30.6084 11.474H38.7564C39.7784 11.474 39.8904 11.894 39.8904 12.454V14.008C39.8904 14.974 39.3444 15.226 38.7564 15.226ZM32.6384 10.9C30.5664 10.9 29.6284 10.396 29.6284 8.828C29.6284 7.232 30.5944 6.728 32.6384 6.728C34.6824 6.728 35.6484 7.218 35.6484 8.828C35.6484 10.508 34.7244 10.9 32.6384 10.9ZM32.6384 9.416C33.3524 9.416 33.4644 9.206 33.4644 8.828C33.4644 8.45 33.3524 8.24 32.6384 8.24C31.9524 8.24 31.8124 8.45 31.8124 8.828C31.8124 9.206 31.9524 9.416 32.6384 9.416ZM34.9344 6.378H30.3424C29.8244 6.378 29.4744 6.308 29.3204 6.182C29.1524 6.056 29.0684 5.874 29.0684 5.636C29.0684 5.062 29.3204 4.824 30.3424 4.824H34.9344C35.9564 4.824 36.2084 5.062 36.2084 5.636C36.2084 5.874 36.1244 6.056 35.9704 6.182C35.8024 6.308 35.4524 6.378 34.9344 6.378ZM34.0524 4.376H31.2244C30.7064 4.376 30.3564 4.306 30.2024 4.18C30.0344 4.054 29.9504 3.886 29.9504 3.648C29.9504 3.102 30.1744 2.892 31.2244 2.892H34.0524C35.1024 2.892 35.3264 3.102 35.3264 3.648C35.3264 3.886 35.2424 4.054 35.0884 4.18C34.9204 4.306 34.5704 4.376 34.0524 4.376ZM38.7564 10.956C38.1264 10.956 37.6224 10.662 37.6224 9.724V4.278C37.6224 3.34 38.1544 3.06 38.7564 3.06C39.3444 3.06 39.8904 3.312 39.8904 4.278V6.252H40.7724C41.7944 6.252 42.0464 6.714 42.0464 7.204C42.0464 7.778 41.7944 8.184 40.7724 8.184H39.8904V9.724C39.8904 10.69 39.3584 10.956 38.7564 10.956ZM48.6432 15.072C48.0132 15.072 47.5092 14.778 47.5092 13.84V12.048H43.7712C42.7492 12.048 42.4972 11.586 42.4972 11.096C42.4972 10.522 42.7492 10.116 43.7712 10.116H53.5012C54.5232 10.116 54.7752 10.522 54.7752 11.096C54.7752 11.586 54.5232 12.048 53.5012 12.048H49.7772V13.84C49.7772 14.806 49.2452 15.072 48.6432 15.072ZM51.0232 8.912H46.2492C44.2752 8.898 43.3232 8.002 43.3232 6.49V5.79C43.3232 4.292 44.4572 3.2 46.3052 3.2H50.9532C52.7312 3.2 53.9352 4.222 53.9352 5.79V6.49C53.9352 8.002 52.9972 8.898 51.0232 8.912ZM46.7252 6.994H50.5332C51.3312 6.952 51.6672 6.826 51.6672 6.14V5.972C51.6672 5.258 51.3452 5.118 50.4912 5.118H46.7672C45.9132 5.118 45.5912 5.258 45.5912 5.972V6.14C45.5912 6.826 45.9272 6.952 46.7252 6.994ZM66.1319 15.352H57.9139C56.8359 15.352 56.7799 14.974 56.7799 14.456V12.608C56.7799 12.23 56.9059 11.866 57.8439 11.866H64.8299V11.348H57.8019C56.8639 11.348 56.7379 11.026 56.7379 10.564C56.7379 10.144 56.9199 9.766 57.8019 9.766H66.0199C66.9159 9.766 67.0979 10.158 67.0979 10.55V12.636C67.0979 13.084 66.9159 13.322 66.0199 13.322H59.0479V13.84H66.1319C67.1959 13.84 67.4059 14.148 67.4059 14.596C67.4059 15.142 67.1539 15.352 66.1319 15.352ZM67.0279 9.206H56.8499C55.9119 9.206 55.7859 8.926 55.7859 8.408C55.7859 7.96 55.9539 7.624 56.8499 7.624H67.0279C67.9239 7.624 68.0919 7.96 68.0919 8.408C68.0919 8.926 67.9659 9.206 67.0279 9.206ZM65.7399 7.022H57.9419C56.9199 7.022 56.8359 6.588 56.8359 6.014V4.194C56.8359 3.606 56.9479 3.2 57.9419 3.2H65.7399C66.6359 3.2 66.8039 3.522 66.8039 4.026C66.8039 4.46 66.6359 4.824 65.7399 4.824H59.1039V5.398H65.7399C66.6779 5.398 66.8039 5.832 66.8039 6.21C66.8039 6.7 66.6779 7.022 65.7399 7.022ZM75.7526 14.904H70.3766C69.3546 14.904 69.1026 14.442 69.1026 13.952C69.1026 13.378 69.3546 12.972 70.3766 12.972H70.7266V9.612C70.7266 8.674 71.2586 8.394 71.8606 8.394C72.4486 8.394 72.9946 8.646 72.9946 9.612V12.972H75.7526C76.7746 12.972 77.0266 13.378 77.0266 13.952C77.0266 14.442 76.7746 14.904 75.7526 14.904ZM74.4646 10.606C73.9746 10.494 73.6666 10.158 73.7226 9.584C73.8486 8.156 73.9466 8.184 73.9466 6.798V5.3H70.5866C69.5646 5.3 69.3126 4.894 69.3126 4.32C69.3126 3.83 69.5646 3.368 70.5866 3.368H75.1926C76.2006 3.368 76.2706 3.774 76.2706 4.432V6.672C76.2706 7.96 76.0746 9.29 75.8506 10.032C75.6686 10.634 74.9266 10.676 74.4646 10.606ZM78.8326 15.072C78.2026 15.072 77.6986 14.778 77.6986 13.84V4.278C77.6986 3.34 78.2306 3.06 78.8326 3.06C79.4206 3.06 79.9666 3.312 79.9666 4.278V7.638H80.6806C81.7446 7.638 81.9546 8.17 81.9546 8.618C81.9546 9.178 81.7446 9.626 80.6806 9.626H79.9666V13.84C79.9666 14.806 79.4346 15.072 78.8326 15.072ZM96.0246 15.226H88.0166C86.9946 15.226 86.8826 14.806 86.8826 14.246V11.894C86.8826 11.18 87.1906 10.676 88.1566 10.676H96.1646C97.1866 10.676 97.2986 11.096 97.2986 11.656V14.008C97.2986 14.946 96.7526 15.226 96.0246 15.226ZM89.1506 13.364H95.0306V12.538H89.1506V13.364ZM90.0466 10.018C87.9606 10.018 87.0366 9.178 87.0366 7.596C87.0366 7.246 87.1066 6.938 87.2606 6.658C86.4906 6.602 86.3366 6.336 86.3366 5.93C86.3366 5.356 86.5886 5.118 87.6106 5.118H92.4826C93.5046 5.118 93.7566 5.356 93.7566 5.93C93.7566 6.336 93.5886 6.602 92.8186 6.658C92.9726 6.952 93.0566 7.26 93.0566 7.596C93.0566 9.29 92.1326 10.018 90.0466 10.018ZM90.0466 8.506C90.7466 8.506 90.8726 7.974 90.8726 7.596C90.8726 7.218 90.7466 6.686 90.0466 6.686C89.3886 6.686 89.2206 7.218 89.2206 7.596C89.2206 7.974 89.3886 8.506 90.0466 8.506ZM91.4606 4.432H88.6326C88.1146 4.432 87.7646 4.362 87.6106 4.222C87.4426 4.096 87.3586 3.914 87.3586 3.676C87.3586 3.13 87.5826 2.892 88.6326 2.892H91.4606C92.5106 2.892 92.7346 3.13 92.7346 3.676C92.7346 3.914 92.6506 4.096 92.4966 4.222C92.3286 4.362 91.9786 4.432 91.4606 4.432ZM96.1646 10.2C95.5346 10.2 95.0306 9.906 95.0306 8.968V4.278C95.0306 3.34 95.5626 3.06 96.1646 3.06C96.7526 3.06 97.2986 3.312 97.2986 4.278V5.678H98.1806C99.2026 5.678 99.4546 6.14 99.4546 6.63C99.4546 7.204 99.2026 7.61 98.1806 7.61H97.2986V8.968C97.2986 9.934 96.7666 10.2 96.1646 10.2ZM108.193 15.072C107.675 15.072 107.255 14.806 107.255 13.84V9.43H106.303V9.5C106.303 10.676 106.009 13.336 104.469 14.666C104.105 15.002 103.419 14.89 103.139 14.61C102.761 14.26 102.887 13.644 103.223 13.154C104.147 11.768 104.329 10.676 104.329 9.122V5.16H104.035C103.405 5.16 103.111 4.726 103.111 4.18C103.111 3.718 103.405 3.228 104.035 3.228H105.225C106.233 3.228 106.303 3.634 106.303 4.292V7.498H107.255V4.278C107.255 3.34 107.675 3.06 108.193 3.06C108.697 3.06 109.131 3.34 109.131 4.278V13.84C109.131 14.806 108.697 15.072 108.193 15.072ZM99.8774 14.148C99.4994 13.798 99.5974 13.182 99.9334 12.692C100.857 11.306 101.039 10.354 101.039 8.8V5.16H100.605C99.8354 5.16 99.6114 4.726 99.6114 4.18C99.6114 3.718 99.8354 3.228 100.605 3.228H101.963C102.971 3.228 103.041 3.634 103.041 4.292V9.038C103.041 10.186 102.691 12.692 101.333 14.078C100.787 14.624 100.213 14.484 99.8774 14.148ZM110.853 15.072C110.321 15.072 109.901 14.792 109.901 13.84V4.278C109.901 3.34 110.335 3.06 110.853 3.06C111.357 3.06 111.791 3.34 111.791 4.278V13.84C111.791 14.806 111.357 15.072 110.853 15.072ZM122.714 15.072C122.084 15.072 121.58 14.778 121.58 13.84V4.278C121.58 3.34 122.112 3.06 122.714 3.06C123.302 3.06 123.848 3.312 123.848 4.278V7.904H124.646C125.668 7.904 125.92 8.366 125.92 8.856C125.92 9.43 125.668 9.836 124.646 9.836H123.848V13.84C123.848 14.806 123.316 15.072 122.714 15.072ZM116.736 15.016C114.608 15.016 113.88 14.036 113.768 12.202V10.788C113.88 8.954 114.552 7.918 116.736 7.918C118.78 7.918 119.592 8.94 119.704 10.788V12.202C119.662 14.092 118.85 15.016 116.736 15.016ZM116.736 13.154C117.072 13.154 117.394 13.056 117.436 12.244V10.69C117.436 9.892 117.044 9.794 116.736 9.794C116.4 9.794 116.078 9.976 116.036 10.732V12.244C116.036 13.126 116.414 13.154 116.736 13.154ZM118.934 7.344H114.342C113.32 7.344 113.068 6.924 113.068 6.434C113.068 5.86 113.32 5.496 114.342 5.496H118.934C119.956 5.496 120.208 5.86 120.208 6.434C120.208 6.924 119.956 7.344 118.934 7.344ZM118.052 4.754H115.224C114.202 4.754 113.95 4.334 113.95 3.844C113.95 3.27 114.202 2.906 115.224 2.906H118.052C119.074 2.906 119.326 3.27 119.326 3.844C119.326 4.334 119.074 4.754 118.052 4.754ZM136.731 7.302H128.611C127.589 7.302 127.477 6.882 127.477 6.322V4.278C127.477 3.34 128.009 3.06 128.611 3.06C129.199 3.06 129.745 3.312 129.745 4.278V5.51H136.731C137.641 5.51 137.795 5.972 137.795 6.392C137.795 6.896 137.641 7.302 136.731 7.302ZM136.731 15.212H128.611C127.589 15.212 127.477 14.792 127.477 14.232V12.426C127.477 11.488 128.009 11.208 128.611 11.208C129.199 11.208 129.745 11.46 129.745 12.426V13.42H136.731C137.641 13.42 137.795 13.882 137.795 14.302C137.795 14.806 137.641 15.212 136.731 15.212ZM137.739 10.354H127.561C126.623 10.354 126.497 9.976 126.497 9.458C126.497 9.052 126.623 8.59 127.561 8.59H137.739C138.677 8.59 138.803 9.052 138.803 9.458C138.803 9.976 138.677 10.354 137.739 10.354ZM7.36706 32.554C7.01706 32.176 6.97506 31.546 7.35306 31.084C8.38906 29.824 8.48706 28.858 8.48706 27.29V23.16H6.13506C5.11306 23.16 4.86106 22.754 4.86106 22.18C4.86106 21.676 5.07106 21.228 6.07906 21.228H9.73306C10.7411 21.228 10.8111 21.634 10.8111 22.292V27.752C10.8111 28.816 10.4051 31.378 9.18706 32.484C8.68306 32.96 7.94106 33.17 7.36706 32.554ZM14.3811 33.072C13.7511 33.072 13.2471 32.778 13.2471 31.84V22.278C13.2471 21.34 13.7791 21.06 14.3811 21.06C14.9691 21.06 15.5151 21.312 15.5151 22.278V25.638H16.6211C17.6851 25.638 17.8951 26.17 17.8951 26.618C17.8951 27.178 17.6851 27.626 16.6211 27.626H15.5151V31.84C15.5151 32.806 14.9831 33.072 14.3811 33.072ZM19.2838 32.82C18.9618 32.834 18.5978 32.736 18.3738 32.358C17.9958 31.756 18.2338 31.21 18.8358 30.776C20.3058 29.74 20.7958 28.648 20.7958 27.066V25.582H19.5218C18.4438 25.582 18.2478 25.106 18.2478 24.658C18.2478 24.098 18.4578 23.706 19.5218 23.706H24.1138C25.1778 23.706 25.3878 24.098 25.3878 24.658C25.3878 25.106 25.1918 25.582 24.1138 25.582H23.1198V27.066C23.1198 28.662 23.6238 29.656 25.0798 30.678C25.6818 31.112 25.9198 31.658 25.5418 32.26C25.3318 32.582 25.0378 32.736 24.7018 32.75C24.4918 32.75 24.2678 32.722 24.0578 32.568C23.2038 31.966 22.5458 31.224 22.0418 30.44C21.5518 31.294 20.9218 32.05 20.1238 32.554C19.8718 32.708 19.5918 32.806 19.2838 32.82ZM23.2318 22.824H20.4038C19.3258 22.824 19.1298 22.348 19.1298 21.9C19.1298 21.34 19.3398 20.948 20.4038 20.948H23.2318C24.2958 20.948 24.5058 21.34 24.5058 21.9C24.5058 22.348 24.3098 22.824 23.2318 22.824ZM28.6498 33.072C28.0198 33.072 27.5158 32.778 27.5158 31.84V22.278C27.5158 21.34 28.0478 21.06 28.6498 21.06C29.2378 21.06 29.7838 21.312 29.7838 22.278V31.84C29.7838 32.806 29.2518 33.072 28.6498 33.072ZM34.9385 27.416C32.7545 27.416 31.7465 26.506 31.7465 24.28C31.7465 22.04 32.7405 21.116 34.9385 21.116C37.1365 21.116 38.1305 22.04 38.1305 24.28C38.1305 26.702 37.0805 27.416 34.9385 27.416ZM33.9025 33.016C33.3845 33.394 32.9925 33.212 32.6565 32.946C32.2085 32.624 32.1105 31.938 32.5445 31.532C33.1885 30.93 33.8045 30.328 33.8045 29.488V29.068C33.8045 28.592 34.0005 28.088 34.8545 28.088C35.7645 28.088 36.0865 28.578 36.0865 29.068V29.488C36.0865 30.328 36.6745 30.93 37.3045 31.532C37.7385 31.938 37.6405 32.624 37.1925 32.946C36.8565 33.212 36.4505 33.394 35.9325 33.016C35.6105 32.778 35.1905 32.218 34.9245 31.868C34.6445 32.218 34.2245 32.778 33.9025 33.016ZM39.4185 33.016C38.9005 33.394 38.5085 33.212 38.1725 32.946C37.7245 32.624 37.6265 31.938 38.0605 31.532C38.7045 30.93 39.3205 30.328 39.3205 29.488V29.068C39.3205 28.592 39.5165 28.088 40.3705 28.088C41.2805 28.088 41.6025 28.578 41.6025 29.068V29.488C41.6025 30.328 42.1905 30.93 42.8205 31.532C43.2545 31.938 43.1565 32.624 42.7085 32.946C42.3725 33.212 41.9665 33.394 41.4485 33.016C41.1265 32.778 40.7065 32.218 40.4405 31.868C40.1605 32.218 39.7405 32.778 39.4185 33.016ZM34.9385 25.568C35.6805 25.568 35.8485 25.218 35.8485 24.28C35.8485 23.342 35.6805 22.978 34.9385 22.978C34.1965 22.978 34.0285 23.342 34.0285 24.28C34.0285 25.218 34.1965 25.568 34.9385 25.568ZM41.8265 27.794C41.1965 27.794 40.6925 27.5 40.6925 26.562V22.278C40.6925 21.34 41.2245 21.06 41.8265 21.06C42.4145 21.06 42.9605 21.312 42.9605 22.278V26.562C42.9605 27.528 42.4285 27.794 41.8265 27.794ZM55.1713 25.302H47.0513C46.0293 25.302 45.9173 24.882 45.9173 24.322V22.278C45.9173 21.34 46.4493 21.06 47.0513 21.06C47.6393 21.06 48.1853 21.312 48.1853 22.278V23.51H55.1713C56.0813 23.51 56.2353 23.972 56.2353 24.392C56.2353 24.896 56.0813 25.302 55.1713 25.302ZM55.1713 33.212H47.0513C46.0293 33.212 45.9173 32.792 45.9173 32.232V30.426C45.9173 29.488 46.4493 29.208 47.0513 29.208C47.6393 29.208 48.1853 29.46 48.1853 30.426V31.42H55.1713C56.0813 31.42 56.2353 31.882 56.2353 32.302C56.2353 32.806 56.0813 33.212 55.1713 33.212ZM56.1793 28.354H46.0013C45.0633 28.354 44.9373 27.976 44.9373 27.458C44.9373 27.052 45.0633 26.59 46.0013 26.59H56.1793C57.1173 26.59 57.2433 27.052 57.2433 27.458C57.2433 27.976 57.1173 28.354 56.1793 28.354ZM73.6793 27.78H63.5013C62.5913 27.78 62.4373 27.458 62.4373 26.912C62.4373 26.478 62.5913 26.058 63.5013 26.058H66.2453V24.84C66.2453 23.93 66.7493 23.734 67.3793 23.734C67.9813 23.734 68.5133 23.916 68.5133 24.84V26.058H73.6793C74.5893 26.058 74.7433 26.478 74.7433 26.912C74.7433 27.458 74.5893 27.78 73.6793 27.78ZM71.5233 33.24H65.4753C63.7393 33.198 63.0813 32.218 63.0813 30.944C63.0813 29.656 63.6133 28.69 65.5033 28.648H71.4953C73.3573 28.648 73.9173 29.656 73.9173 30.944C73.9173 32.358 73.0913 33.212 71.5233 33.24ZM66.1053 31.546H70.8933C71.4393 31.504 71.6633 31.434 71.6633 30.944C71.6633 30.454 71.4393 30.384 70.8933 30.342H66.1053C65.5593 30.384 65.3353 30.454 65.3353 30.944C65.3353 31.434 65.5593 31.504 66.1053 31.546ZM71.9013 25.47C71.4113 25.372 71.0473 25.106 71.1453 24.532C71.2433 24.028 71.2713 23.818 71.2713 23.37V22.992H64.6633C63.5993 22.992 63.3893 22.642 63.3893 22.082C63.3893 21.634 63.5853 21.2 64.6633 21.2H72.5173C73.5253 21.2 73.5953 21.606 73.5953 22.264V22.964C73.5953 23.65 73.5113 24.406 73.2873 24.966C73.0633 25.554 72.3493 25.54 71.9013 25.47ZM85.918 27.458H77.854C76.832 27.458 76.72 27.038 76.72 26.478V22.418C76.72 21.48 77.224 21.2 77.826 21.2C78.456 21.2 79.002 21.494 79.002 22.418V22.782H84.77V22.418C84.77 21.494 85.316 21.2 85.946 21.2C86.548 21.2 87.052 21.494 87.052 22.418V26.478C87.052 27.038 86.94 27.458 85.918 27.458ZM81.9 33.282C81.27 33.282 80.766 32.988 80.766 32.05V30.524H77.028C76.006 30.524 75.754 30.062 75.754 29.572C75.754 28.998 76.006 28.592 77.028 28.592H86.758C87.78 28.592 88.032 28.998 88.032 29.572C88.032 30.062 87.78 30.524 86.758 30.524H83.034V32.05C83.034 33.016 82.502 33.282 81.9 33.282ZM79.002 25.68H84.77V24.56H79.002V25.68ZM97.076 32.806C96.516 33.086 96.04 32.848 95.746 32.526C95.368 32.19 95.48 31.448 95.802 30.986C96.698 29.712 96.866 28.802 96.866 27.262V23.16H94.346C93.324 23.16 93.072 22.754 93.072 22.18C93.072 21.69 93.324 21.228 94.346 21.228H98.112C99.12 21.228 99.19 21.634 99.19 22.292V27.78C99.19 28.354 99.064 29.348 98.756 30.398C98.42 31.448 97.874 32.4 97.076 32.806ZM103.586 33.072C102.956 33.072 102.452 32.778 102.452 31.84V22.278C102.452 21.34 102.984 21.06 103.586 21.06C104.174 21.06 104.72 21.312 104.72 22.278V31.84C104.72 32.806 104.188 33.072 103.586 33.072ZM117.785 29.068H107.607C106.711 29.068 106.543 28.788 106.543 28.242C106.543 27.836 106.669 27.43 107.607 27.43H111.569V26.716H108.671C107.649 26.716 107.537 26.31 107.537 25.764V24C107.537 23.58 107.719 23.202 108.601 23.202H115.587V22.698H108.419C107.761 22.698 107.495 22.404 107.495 21.942C107.495 21.564 107.761 21.144 108.419 21.144H116.805C117.673 21.144 117.855 21.606 117.855 22.026V23.762C117.855 24.238 117.659 24.602 116.791 24.602H109.805V25.176H117.029C117.813 25.176 118.163 25.498 118.163 25.946C118.163 26.464 117.785 26.716 117.029 26.716H113.837V27.43H117.785C118.723 27.43 118.849 27.836 118.849 28.242C118.849 28.788 118.681 29.068 117.785 29.068ZM116.735 33.226C116.133 33.226 115.601 32.946 115.601 32.008V31.462H108.727C107.691 31.462 107.453 31.098 107.453 30.608C107.453 30.048 107.663 29.726 108.727 29.726H116.735C117.813 29.726 117.869 30.314 117.869 30.86V32.008C117.869 32.974 117.323 33.226 116.735 33.226ZM123.765 29.18C121.595 29.18 120.489 28.214 120.377 26.366C120.335 25.89 120.335 24.462 120.377 23.972C120.475 22.11 121.567 21.102 123.765 21.102C125.851 21.102 127.027 22.11 127.153 23.972C127.167 24.084 127.167 24.252 127.167 24.476V25.848C127.167 26.058 127.167 26.24 127.153 26.366C127.111 28.256 125.893 29.18 123.765 29.18ZM126.733 32.904H121.133C120.111 32.904 119.859 32.442 119.859 31.952C119.859 31.378 120.111 30.972 121.133 30.972H126.733C127.755 30.972 128.007 31.378 128.007 31.952C128.007 32.442 127.755 32.904 126.733 32.904ZM123.765 27.276C124.129 27.276 124.843 27.178 124.885 26.366C124.899 26.24 124.899 26.058 124.899 25.834V24.434C124.899 24.21 124.899 24.042 124.885 23.916C124.885 23.118 124.073 23.02 123.765 23.02C123.401 23.02 122.687 23.202 122.645 23.958C122.603 24.546 122.603 25.89 122.645 26.366C122.645 27.178 123.373 27.276 123.765 27.276ZM130.163 33.072C129.533 33.072 129.029 32.778 129.029 31.84V22.278C129.029 21.34 129.561 21.06 130.163 21.06C130.751 21.06 131.297 21.312 131.297 22.278V31.84C131.297 32.806 130.765 33.072 130.163 33.072ZM147.845 33.212H139.249C138.171 33.212 138.115 32.834 138.115 32.288V30.202C138.115 29.824 138.241 29.432 139.179 29.432H146.389V28.858H139.137C138.199 28.858 138.073 28.55 138.073 28.06C138.073 27.654 138.227 27.234 139.137 27.234H147.593C148.475 27.234 148.657 27.654 148.657 28.046V30.174C148.657 30.622 148.489 30.93 147.593 30.93H140.383V31.546H147.845C148.755 31.546 148.979 31.91 148.979 32.372C148.979 32.918 148.755 33.212 147.845 33.212ZM140.621 26.548C138.465 26.548 137.457 25.974 137.457 23.86C137.457 21.76 138.451 21.158 140.621 21.158C142.777 21.158 143.785 21.746 143.785 23.86C143.785 26.128 142.777 26.548 140.621 26.548ZM140.621 24.882C141.363 24.882 141.503 24.644 141.503 23.86C141.503 23.076 141.363 22.838 140.621 22.838C139.879 22.838 139.739 23.076 139.739 23.86C139.739 24.644 139.879 24.882 140.621 24.882ZM147.523 26.814C146.893 26.814 146.389 26.52 146.389 25.582V22.278C146.389 21.34 146.921 21.06 147.523 21.06C148.111 21.06 148.657 21.312 148.657 22.278V25.582C148.657 26.548 148.125 26.814 147.523 26.814ZM159.342 33.24H153.294C151.544 33.198 150.9 31.98 150.9 30.664C150.9 29.32 151.446 28.13 153.322 28.088H159.314C161.204 28.088 161.736 29.334 161.736 30.664C161.736 31.966 161.12 33.198 159.342 33.24ZM153.924 31.336H158.712C159.258 31.294 159.482 31.168 159.482 30.664C159.482 30.146 159.258 30.02 158.712 29.978H153.924C153.378 30.02 153.154 30.146 153.154 30.664C153.154 31.168 153.378 31.294 153.924 31.336ZM151.6 27.402C151.278 27.416 150.914 27.318 150.69 26.94C150.312 26.338 150.55 25.862 151.152 25.428C152.552 24.434 152.972 23.972 153.014 22.572V22.348C153.014 21.382 153.588 21.13 154.176 21.13C154.764 21.13 155.338 21.382 155.338 22.348V22.572C155.38 23.972 155.758 24.308 157.186 25.33C157.788 25.764 158.026 26.24 157.648 26.842C157.438 27.164 157.144 27.318 156.808 27.332C156.598 27.332 156.374 27.304 156.164 27.15C155.506 26.66 154.834 26.058 154.288 25.372C153.784 26.086 153.154 26.73 152.44 27.136C152.202 27.29 151.894 27.388 151.6 27.402ZM160.084 27.612C159.454 27.612 158.95 27.318 158.95 26.38V22.278C158.95 21.34 159.482 21.06 160.084 21.06C160.672 21.06 161.218 21.312 161.218 22.278V23.272H162.24C163.304 23.272 163.514 23.804 163.514 24.252C163.514 24.812 163.304 25.26 162.24 25.26H161.218V26.38C161.218 27.346 160.686 27.612 160.084 27.612Z" fill="#898989"/>
<path d="M46.5624 101.54H11.6424C7.26242 101.54 6.78242 99.74 6.78242 97.34V86.6C6.78242 83.54 8.10242 81.38 12.2424 81.38H47.1624C51.5424 81.38 52.0224 83.18 52.0224 85.58V96.32C52.0224 100.34 49.6824 101.54 46.5624 101.54ZM16.5024 93.8H42.3024V89.12H16.5024V93.8ZM50.7624 77.24H7.14242C3.24242 77.24 2.58242 75.86 2.58242 73.52C2.58242 71.66 3.24242 69.86 7.14242 69.86H50.7624C54.6624 69.86 55.3224 71.66 55.3224 73.52C55.3224 75.86 54.6624 77.24 50.7624 77.24ZM43.1424 67.94C41.0424 67.52 39.4824 66.38 39.9024 63.92C40.2624 61.52 40.4424 61.4 40.4424 59.12V57.68H12.1224C7.56242 57.68 6.66242 56.18 6.66242 53.78C6.66242 51.86 7.50242 50 12.1224 50H45.7824C50.1024 50 50.4024 51.74 50.4024 54.56V57.38C50.4024 60.32 50.0424 63.38 49.0824 65.78C48.1224 68.3 45.0624 68.24 43.1424 67.94ZM100.674 101.54H66.6541C62.2741 101.54 61.7941 99.74 61.7941 97.34V89.42C61.7941 86.36 63.1141 84.2 67.2541 84.2H79.0141V81.08H62.1541C58.2541 81.08 57.5941 79.64 57.5941 77.42C57.5941 75.68 58.1341 73.82 62.1541 73.82H105.774C109.794 73.82 110.334 75.68 110.334 77.42C110.334 79.64 109.674 81.08 105.774 81.08H88.7341V84.2H101.274C105.654 84.2 106.134 86 106.134 88.4V96.32C106.134 100.34 103.794 101.54 100.674 101.54ZM71.5141 94.28H96.4141V91.46H71.5141V94.28ZM101.514 70.88H66.4141C62.0341 70.88 60.9541 69.26 60.9541 67.16C60.9541 64.7 62.0341 63.32 66.4141 63.32H68.9941V57.62H66.7141C62.3341 57.62 61.2541 56 61.2541 53.9C61.2541 51.44 62.3341 50.06 66.7141 50.06H101.214C105.594 50.06 106.674 51.44 106.674 53.9C106.674 56 105.594 57.62 101.214 57.62H98.9341V63.32H101.514C105.894 63.32 106.974 64.7 106.974 67.16C106.974 69.26 105.894 70.88 101.514 70.88ZM78.7141 63.32H89.2141V57.62H78.7141V63.32ZM134.326 99.38H120.106C115.726 99.38 115.246 97.58 115.246 95.18V54.62C115.246 52.16 115.726 50 120.106 50H133.126C137.506 50 138.586 51.74 138.586 54.2C138.586 56.3 137.506 58.28 133.126 58.28H124.966V70.58H133.486C133.726 70.64 133.966 70.64 134.206 70.64C134.446 70.64 134.686 70.7 134.866 70.76C134.986 70.76 135.046 70.76 135.106 70.82C135.766 71 136.126 71.12 136.546 71.3L136.966 71.6C137.266 71.78 137.566 72.08 137.746 72.44C137.746 72.44 137.746 72.5 137.806 72.56C137.866 72.74 137.986 72.92 138.046 73.16L138.226 73.76V74.12C138.226 74.18 138.226 74.24 138.286 74.24C138.286 74.3 138.286 74.36 138.286 74.42V74.78C138.286 75.2 138.226 75.44 138.166 75.86C138.166 75.92 138.106 76.04 138.046 76.28C137.986 76.52 137.866 76.7 137.806 76.82C137.626 77.12 137.386 77.42 137.086 77.72L136.846 77.9C136.426 78.14 136.066 78.32 135.586 78.5C135.346 78.56 135.166 78.62 135.106 78.62C134.926 78.68 134.686 78.74 134.506 78.74C134.266 78.8 134.026 78.8 133.786 78.86H124.966V91.1H134.326C138.706 91.1 139.786 93.08 139.786 95.18C139.786 97.64 138.706 99.38 134.326 99.38ZM153.046 100.88C150.346 100.88 148.186 99.62 148.186 95.6V54.62C148.186 50.6 150.466 49.4 153.046 49.4C155.566 49.4 157.906 50.48 157.906 54.62V69.02H161.686C166.066 69.02 167.146 71 167.146 73.1C167.146 75.56 166.066 77.3 161.686 77.3H157.906V95.6C157.906 99.74 155.626 100.88 153.046 100.88Z" fill="#0BAEFF"/>
</svg>
