<svg width="84" height="26" viewBox="0 0 84 26" fill="none" xmlns="http://www.w3.org/2000/svg">
<path d="M8.33301 4.66675H11.6663M9.99967 14.6667L12.4997 12.1667M16.6663 14.6667C16.6663 18.3486 13.6816 21.3334 9.99967 21.3334C6.31778 21.3334 3.33301 18.3486 3.33301 14.6667C3.33301 10.9848 6.31778 8.00008 9.99967 8.00008C13.6816 8.00008 16.6663 10.9848 16.6663 14.6667Z" stroke="#0BAEFF" stroke-width="2.5" stroke-linecap="round" stroke-linejoin="round"/>
<path d="M42.3541 21.18H30.7141C29.2541 21.18 29.0941 20.58 29.0941 19.78V16.2C29.0941 15.18 29.5341 14.46 30.9141 14.46H42.5541C44.0141 14.46 44.1741 15.06 44.1741 15.86V19.44C44.1741 20.78 43.3941 21.18 42.3541 21.18ZM32.3341 18.6H40.9341V17.04H32.3341V18.6ZM43.7541 13.08H29.2141C27.9141 13.08 27.6941 12.62 27.6941 11.84C27.6941 11.22 27.9141 10.62 29.2141 10.62H43.7541C45.0541 10.62 45.2741 11.22 45.2741 11.84C45.2741 12.62 45.0541 13.08 43.7541 13.08ZM41.2141 9.98C40.5141 9.84 39.9941 9.46 40.1341 8.64C40.2541 7.84 40.3141 7.8 40.3141 7.04V6.56H30.8741C29.3541 6.56 29.0541 6.06 29.0541 5.26C29.0541 4.62 29.3341 4 30.8741 4H42.0941C43.5341 4 43.6341 4.58 43.6341 5.52V6.46C43.6341 7.44 43.5141 8.46 43.1941 9.26C42.8741 10.1 41.8541 10.08 41.2141 9.98ZM59.058 21.18H47.718C46.258 21.18 46.098 20.58 46.098 19.78V17.14C46.098 16.12 46.538 15.4 47.918 15.4H51.838V14.36H46.218C44.918 14.36 44.698 13.88 44.698 13.14C44.698 12.56 44.878 11.94 46.218 11.94H60.758C62.098 11.94 62.278 12.56 62.278 13.14C62.278 13.88 62.058 14.36 60.758 14.36H55.078V15.4H59.258C60.718 15.4 60.878 16 60.878 16.8V19.44C60.878 20.78 60.098 21.18 59.058 21.18ZM49.338 18.76H57.638V17.82H49.338V18.76ZM59.338 10.96H47.638C46.178 10.96 45.818 10.42 45.818 9.72C45.818 8.9 46.178 8.44 47.638 8.44H48.498V6.54H47.738C46.278 6.54 45.918 6 45.918 5.3C45.918 4.48 46.278 4.02 47.738 4.02H59.238C60.698 4.02 61.058 4.48 61.058 5.3C61.058 6 60.698 6.54 59.238 6.54H58.478V8.44H59.338C60.798 8.44 61.158 8.9 61.158 9.72C61.158 10.42 60.798 10.96 59.338 10.96ZM51.738 8.44H55.238V6.54H51.738V8.44ZM68.942 20.46H64.202C62.742 20.46 62.582 19.86 62.582 19.06V5.54C62.582 4.72 62.742 4 64.202 4H68.542C70.002 4 70.362 4.58 70.362 5.4C70.362 6.1 70.002 6.76 68.542 6.76H65.822V10.86H68.662C68.742 10.88 68.822 10.88 68.902 10.88C68.982 10.88 69.062 10.9 69.122 10.92C69.162 10.92 69.182 10.92 69.202 10.94C69.422 11 69.542 11.04 69.682 11.1L69.822 11.2C69.922 11.26 70.022 11.36 70.082 11.48C70.082 11.48 70.082 11.5 70.102 11.52C70.122 11.58 70.162 11.64 70.182 11.72L70.242 11.92V12.04C70.242 12.06 70.242 12.08 70.262 12.08C70.262 12.1 70.262 12.12 70.262 12.14V12.26C70.262 12.4 70.242 12.48 70.222 12.62C70.222 12.64 70.202 12.68 70.182 12.76C70.162 12.84 70.122 12.9 70.102 12.94C70.042 13.04 69.962 13.14 69.862 13.24L69.782 13.3C69.642 13.38 69.522 13.44 69.362 13.5C69.282 13.52 69.222 13.54 69.202 13.54C69.142 13.56 69.062 13.58 69.002 13.58C68.922 13.6 68.842 13.6 68.762 13.62H65.822V17.7H68.942C70.402 17.7 70.762 18.36 70.762 19.06C70.762 19.88 70.402 20.46 68.942 20.46ZM75.182 20.96C74.282 20.96 73.562 20.54 73.562 19.2V5.54C73.562 4.2 74.322 3.8 75.182 3.8C76.022 3.8 76.802 4.16 76.802 5.54V10.34H78.062C79.522 10.34 79.882 11 79.882 11.7C79.882 12.52 79.522 13.1 78.062 13.1H76.802V19.2C76.802 20.58 76.042 20.96 75.182 20.96Z" fill="#0BAEFF"/>
</svg>
